<?xml version="1.0" encoding="utf-8"?>
<!-- Generator: Adobe Illustrator 26.0.1, SVG Export Plug-In . SVG Version: 6.00 Build 0)  -->
<svg version="1.1" baseProfile="tiny" xmlns="http://www.w3.org/2000/svg" xmlns:xlink="http://www.w3.org/1999/xlink" x="0px"
	 y="0px" viewBox="0 0 793.68 197.26" overflow="visible" xml:space="preserve">
<g id="Background" display="none">
	<rect y="-2.31" display="inline" fill="#3C3C3C" width="793.68" height="210.14"/>
</g>
<g id="Ebene_1">
	<g>
		<polygon fill="#FFFFFF" points="74.84,99.61 74.84,137.7 76.51,140.76 107.06,157.81 107.06,117.16 		"/>
		<polygon fill="#FFFFFF" points="144.49,137.03 144.49,99.53 111.69,117.24 111.69,157.81 142.79,140.15 		"/>
		<path fill="#FFFFFF" d="M182.55,75.87l-33.67-16.52h-2.29l-30.64,16.28v1.61l33.24,17.18v40.9l1.44,0.78l30.12-17.06l1.82-3.31
			L182.55,75.87z M147.72,63.89h0.1l27.73,13.6l-23.96,13.06l-0.32-0.16l-27.08-14L147.72,63.89z M177.38,115.74l-23.65,13.4V94.57
			l24.28-13.24l0.01,33.25L177.38,115.74z"/>
		<polygon fill="#FFFFFF" points="110.81,79.75 108.37,79.75 77.76,96.02 108.94,113.17 141.73,95.77 		"/>
		<path fill="#FFFFFF" d="M108.62,45.26l1.3,0.05l22.57,11.02l-23,12.41l-23.64-12.2L108.62,45.26 M107.65,40.66L77.76,55.48
			l-0.5,1.74l31.3,16.15h1.92l30.62-16.52v-1.36l-30.05-14.66L107.65,40.66L107.65,40.66z"/>
		<path fill="#FFFFFF" d="M102.93,77.39v-1.53l-30.8-16.02l-2.79-0.01L35.95,76.24l0.18,39.51l1.82,3.3l30.67,16.78l1.59-0.86V95.14
			l0.18-0.33L102.93,77.39z M70.39,64.38h0.62l23.63,12.3L68.07,90.9l-0.02,0.01L43.62,77.54L70.39,64.38z M65.67,129.04L41.3,115.7
			l-0.63-1.14l-0.16-33.53l25.16,13.74v0.13V129.04z"/>
		<g>
			<path fill="#FFFFFF" d="M235.38,113.55c-2.65,1.05-5.7,1.49-9.24,1.49c-12.61,0-21.63-6.36-21.63-19.03
				c0-11.95,9.74-19.03,21.63-19.03c3.32,0,6.47,0.28,9.13,1.1l-0.34,7.74c-2.27-0.83-4.7-1.27-7.35-1.27
				c-6.91,0-11.67,4.48-11.67,11.45c0,7.24,4.37,11.45,11.67,11.45c2.66,0,5.03-0.44,7.46-1.49L235.38,113.55z"/>
			<path fill="#FFFFFF" d="M257,107.91c6.47,0,7.85-6.75,7.85-11.89c0-5.14-1.38-11.89-7.85-11.89c-6.25,0-7.8,6.91-7.8,11.89
				c0,2.49,0.44,5.42,1.55,7.8C251.91,106.19,253.91,107.91,257,107.91 M237.81,96.01c0-11.95,7.3-19.03,19.2-19.03
				c12.11,0,19.25,6.81,19.25,19.03c0,12.11-7.3,19.03-19.25,19.03c-6.08,0-10.79-1.61-14.16-4.87
				C239.47,106.91,237.81,102.15,237.81,96.01"/>
			<path fill="#FFFFFF" d="M292.46,107.3h2.44c7.8,0,10.62-5.09,10.62-11.84c0-6.64-3.04-10.79-10.4-10.79h-2.66V107.3z
				 M281.56,114.44v-36.9h14.33c11.78,0,21.02,4.48,21.02,17.92c0,12.11-8.13,18.97-20.03,18.97H281.56z"/>
		</g>
		<polygon fill="#FFFFFF" points="322.21,114.44 322.21,77.54 349.87,77.54 349.87,84.67 332.89,84.67 332.89,92.25 349.21,92.25 
			349.21,99.33 332.89,99.33 332.89,107.3 350.32,107.3 350.32,114.44 		"/>
		<g>
			<path fill="#FFFFFF" d="M356.39,105.64c3.7,1.72,7.3,2.27,11.28,2.27c2.65,0,6.25-0.72,6.25-3.76c0-2.38-2.04-3.21-6.75-4.81
				l-2.49-0.83c-4.98-1.6-8.52-4.26-8.52-10.12c0-9.02,9.4-11.45,16.32-11.45c3.59,0,7.02,0.44,10.57,1.27l-0.28,7.58
				c-3.05-1.16-6.14-1.71-9.4-1.71c-2.44,0-6.42,0.44-6.42,3.6c0,2.38,2,2.88,5.26,3.93l3.15,1c5.48,1.77,9.46,4.04,9.46,10.51
				c0,8.96-8.08,11.95-15.77,11.95c-4.43,0-8.68-0.45-12.94-1.61L356.39,105.64z"/>
		</g>
		<polygon fill="#FFFFFF" points="398.61,114.44 398.61,101.77 385,77.54 396.83,77.54 404.53,93.91 411.99,77.54 423.33,77.54 
			409.5,101.77 409.5,114.44 		"/>
		<g>
			<path fill="#FFFFFF" d="M424.01,105.64c3.7,1.72,7.3,2.27,11.28,2.27c2.65,0,6.25-0.72,6.25-3.76c0-2.38-2.04-3.21-6.74-4.81
				l-2.5-0.83c-4.98-1.6-8.52-4.26-8.52-10.12c0-9.02,9.4-11.45,16.32-11.45c3.6,0,7.03,0.44,10.57,1.27l-0.28,7.58
				c-3.04-1.16-6.14-1.71-9.4-1.71c-2.44,0-6.41,0.44-6.41,3.6c0,2.38,1.99,2.88,5.25,3.93l3.16,1c5.47,1.77,9.45,4.04,9.45,10.51
				c0,8.96-8.07,11.95-15.76,11.95c-4.43,0-8.69-0.45-12.95-1.61L424.01,105.64z"/>
		</g>
	</g>
	<g>
		<path fill="#FFFFFF" d="M472.62,95.98c0-11.26,6.51-18.99,18.05-18.99c11.7,0,18.11,7.51,18.11,18.99
			c0,11.32-6.46,18.99-18.11,18.99c-2.93,0-5.58-0.44-7.84-1.33C476.15,110.89,472.62,104.65,472.62,95.98z M490.67,109.29
			c7.29,0,9.55-7.18,9.55-13.3s-2.26-13.3-9.55-13.3c-7.23,0-9.5,7.34-9.5,13.3c0,3.04,0.55,6.29,2.04,8.89
			C484.77,107.47,487.14,109.29,490.67,109.29z"/>
		<path fill="#FFFFFF" d="M514.46,114.37V92.84c0-2.04-0.05-4.14-0.28-6.18h7.18l0.11,4.64c1.82-3.53,5.08-5.19,9-5.19
			c6.68,0,9.38,3.97,9.38,10.32v17.94h-7.62V98.19c0-3.31-0.5-6.62-4.64-6.62c-4.31,0-5.52,3.87-5.52,7.51v15.29H514.46z"/>
		<path fill="#FFFFFF" d="M546.75,114.37v-39.8h7.62v39.8H546.75z"/>
		<path fill="#FFFFFF" d="M561.27,81.52v-6.13h7.62v6.13H561.27z M561.27,114.37V86.65h7.62v27.71H561.27z"/>
		<path fill="#FFFFFF" d="M575.79,114.37V92.84c0-2.04-0.05-4.14-0.28-6.18h7.18l0.11,4.64c1.82-3.53,5.08-5.19,9-5.19
			c6.68,0,9.38,3.97,9.38,10.32v17.94h-7.62V98.19c0-3.31-0.5-6.62-4.64-6.62c-4.31,0-5.52,3.87-5.52,7.51v15.29H575.79z"/>
		<path fill="#FFFFFF" d="M613.93,102.17c0.17,4.8,3.2,7.73,9.11,7.73c2.71,0,5.69-0.72,7.62-1.82l0.33,5.3
			c-2.21,0.94-5.8,1.6-8.83,1.6c-10.21,0-15.68-5.36-15.68-14.58c0-8.23,5.58-14.3,13.75-14.3c8.89,0,12.2,5.85,12.2,14.24v1.82
			H613.93z M625.58,97.86c0-3.48-1.1-7.18-5.3-7.18c-4.2,0-6.18,3.64-6.35,7.18H625.58z"/>
		<path fill="#FFFFFF" d="M654.39,114.37V77.54h8.17v14.69h14.63V77.54h8.17v36.82h-8.17V98.8h-14.63v15.57H654.39z"/>
		<path fill="#FFFFFF" d="M698.66,102.17c0.17,4.8,3.2,7.73,9.11,7.73c2.71,0,5.69-0.72,7.62-1.82l0.33,5.3
			c-2.21,0.94-5.8,1.6-8.83,1.6c-10.21,0-15.68-5.36-15.68-14.58c0-8.23,5.58-14.3,13.75-14.3c8.89,0,12.2,5.85,12.2,14.24v1.82
			H698.66z M710.31,97.86c0-3.48-1.1-7.18-5.3-7.18c-4.2,0-6.18,3.64-6.35,7.18H710.31z"/>
		<path fill="#FFFFFF" d="M722.34,114.37v-39.8h7.62v39.8H722.34z"/>
		<path fill="#FFFFFF" d="M736.86,126.29V94.71c0-3.31-0.11-5.69-0.28-8.06h7.23l0.17,4.69c1.55-3.37,5.19-5.24,8.89-5.24
			c8.39,0,11.48,6.9,11.48,14.3c0,7.45-3.15,14.58-11.65,14.58c-3.53,0-6.85-1.77-8.23-5.08v16.4H736.86z M750.22,109.62
			c5.02,0,5.96-5.24,5.96-9.22c0-3.97-0.88-8.94-5.91-8.94c-4.8,0-6.02,5.13-6.02,8.94c0,1.93,0.33,4.25,1.21,6.07
			C746.35,108.24,747.84,109.62,750.22,109.62z"/>
	</g>
</g>
</svg>
